<mxfile host="app.diagrams.net" modified="2024-08-08T12:10:59.930Z" agent="Mozilla/5.0 (Windows NT 10.0; Win64; x64; rv:128.0) Gecko/20100101 Firefox/128.0" version="24.6.4" etag="5_Zkh9VvaJMIQtJ8OVRv" type="github">
  <diagram name="Page-1" id="91JTCFGsA3SIVmWFMBJP">
    <mxGraphModel>
      <root>
        <mxCell id="0" />
        <mxCell id="1" parent="0" />
      </root>
    </mxGraphModel>
  </diagram>
</mxfile>
